<svg width="24" height="25" viewBox="0 0 24 25" fill="none" xmlns="http://www.w3.org/2000/svg">
<path d="M8 22.5918C7.72 22.5918 7.42998 22.521 7.16998 22.3793C6.59998 22.0756 6.25 21.4683 6.25 20.8205V19.3833C3.23 19.0695 1.25 16.8224 1.25 13.6036V7.53057C1.25 4.04865 3.56 1.71051 7 1.71051H17C20.44 1.71051 22.75 4.04865 22.75 7.53057V13.6036C22.75 17.0855 20.44 19.4237 17 19.4237H13.23L8.96997 22.2984C8.67997 22.4907 8.34 22.5918 8 22.5918ZM7 3.21865C4.42 3.21865 2.75 4.909 2.75 7.52043V13.5936C2.75 16.205 4.42 17.8954 7 17.8954C7.41 17.8954 7.75 18.2395 7.75 18.6545V20.8105C7.75 20.9421 7.83 21.0028 7.88 21.0332C7.93001 21.0635 8.03001 21.0939 8.14001 21.023L12.59 18.027C12.71 17.946 12.86 17.8954 13.01 17.8954H17.01C19.59 17.8954 21.26 16.205 21.26 13.5936V7.52043C21.26 4.909 19.59 3.21865 17.01 3.21865H7Z" fill="#91B396"/>
<path d="M11.9998 12.2575C11.5898 12.2575 11.2498 11.9133 11.2498 11.4983V11.2858C11.2498 10.1116 12.0998 9.53468 12.4198 9.312C12.7898 9.05896 12.9098 8.8869 12.9098 8.62373C12.9098 8.11764 12.4998 7.7026 11.9998 7.7026C11.4998 7.7026 11.0898 8.11764 11.0898 8.62373C11.0898 9.03872 10.7498 9.38287 10.3398 9.38287C9.92984 9.38287 9.58984 9.03872 9.58984 8.62373C9.58984 7.27753 10.6698 6.18433 11.9998 6.18433C13.3298 6.18433 14.4098 7.27753 14.4098 8.62373C14.4098 9.77762 13.5698 10.3546 13.2598 10.5671C12.8698 10.8303 12.7498 11.0024 12.7498 11.2858V11.4983C12.7498 11.9234 12.4098 12.2575 11.9998 12.2575Z" fill="#91B396"/>
<path d="M12 14.778C11.58 14.778 11.25 14.4338 11.25 14.0188C11.25 13.6038 11.59 13.2597 12 13.2597C12.41 13.2597 12.75 13.6038 12.75 14.0188C12.75 14.4338 12.42 14.778 12 14.778Z" fill="#91B396"/>
</svg>
