<svg width="24" height="24" viewBox="0 0 24 24" fill="none" xmlns="http://www.w3.org/2000/svg">
<path d="M7 1C7.39286 1 7.71429 1.30937 7.71429 1.6875V3.75H16.2857V1.6875C16.2857 1.30937 16.6071 1 17 1C17.3929 1 17.7143 1.30937 17.7143 1.6875V3.75H19.1429C20.7188 3.75 22 4.9832 22 6.5V7.875V9.25V20.25C22 21.7668 20.7188 23 19.1429 23H4.85714C3.28125 23 2 21.7668 2 20.25V9.25V7.875V6.5C2 4.9832 3.28125 3.75 4.85714 3.75H6.28571V1.6875C6.28571 1.30937 6.60714 1 7 1ZM20.5714 9.25H3.42857V20.25C3.42857 21.0105 4.06696 21.625 4.85714 21.625H19.1429C19.933 21.625 20.5714 21.0105 20.5714 20.25V9.25ZM19.1429 5.125H4.85714C4.06696 5.125 3.42857 5.73945 3.42857 6.5V7.875H20.5714V6.5C20.5714 5.73945 19.933 5.125 19.1429 5.125ZM19.1429 12.6875C19.1429 13.0656 18.8214 13.375 18.4286 13.375H11.2857C10.8929 13.375 10.5714 13.0656 10.5714 12.6875C10.5714 12.3094 10.8929 12 11.2857 12H18.4286C18.8214 12 19.1429 12.3094 19.1429 12.6875ZM12.7143 18.875H5.57143C5.17857 18.875 4.85714 18.5656 4.85714 18.1875C4.85714 17.8094 5.17857 17.5 5.57143 17.5H12.7143C13.1071 17.5 13.4286 17.8094 13.4286 18.1875C13.4286 18.5656 13.1071 18.875 12.7143 18.875ZM6.28571 12.6875C6.28571 12.8698 6.36097 13.0447 6.49492 13.1736C6.62888 13.3026 6.81056 13.375 7 13.375C7.18944 13.375 7.37112 13.3026 7.50508 13.1736C7.63903 13.0447 7.71429 12.8698 7.71429 12.6875C7.71429 12.5052 7.63903 12.3303 7.50508 12.2014C7.37112 12.0724 7.18944 12 7 12C6.81056 12 6.62888 12.0724 6.49492 12.2014C6.36097 12.3303 6.28571 12.5052 6.28571 12.6875ZM7 14.75C6.43168 14.75 5.88664 14.5327 5.48477 14.1459C5.08291 13.7591 4.85714 13.2345 4.85714 12.6875C4.85714 12.1405 5.08291 11.6159 5.48477 11.2291C5.88664 10.8423 6.43168 10.625 7 10.625C7.56832 10.625 8.11337 10.8423 8.51523 11.2291C8.91709 11.6159 9.14286 12.1405 9.14286 12.6875C9.14286 13.2345 8.91709 13.7591 8.51523 14.1459C8.11337 14.5327 7.56832 14.75 7 14.75ZM17 18.875C17.1894 18.875 17.3711 18.8026 17.5051 18.6736C17.639 18.5447 17.7143 18.3698 17.7143 18.1875C17.7143 18.0052 17.639 17.8303 17.5051 17.7014C17.3711 17.5724 17.1894 17.5 17 17.5C16.8106 17.5 16.6289 17.5724 16.4949 17.7014C16.361 17.8303 16.2857 18.0052 16.2857 18.1875C16.2857 18.3698 16.361 18.5447 16.4949 18.6736C16.6289 18.8026 16.8106 18.875 17 18.875ZM19.1429 18.1875C19.1429 18.7345 18.9171 19.2591 18.5152 19.6459C18.1134 20.0327 17.5683 20.25 17 20.25C16.4317 20.25 15.8866 20.0327 15.4848 19.6459C15.0829 19.2591 14.8571 18.7345 14.8571 18.1875C14.8571 17.6405 15.0829 17.1159 15.4848 16.7291C15.8866 16.3423 16.4317 16.125 17 16.125C17.5683 16.125 18.1134 16.3423 18.5152 16.7291C18.9171 17.1159 19.1429 17.6405 19.1429 18.1875Z" fill="#172154"/>
</svg>
