<svg width="24" height="24" viewBox="0 0 24 24" fill="none" xmlns="http://www.w3.org/2000/svg">
<path d="M6 8C6 8.39397 6.0776 8.78407 6.22836 9.14805C6.37913 9.51203 6.6001 9.84274 6.87868 10.1213C7.15726 10.3999 7.48797 10.6209 7.85195 10.7716C8.21593 10.9224 8.60603 11 9 11C9.39397 11 9.78407 10.9224 10.1481 10.7716C10.512 10.6209 10.8427 10.3999 11.1213 10.1213C11.3999 9.84274 11.6209 9.51203 11.7716 9.14805C11.9224 8.78407 12 8.39397 12 8C12 7.60603 11.9224 7.21593 11.7716 6.85195C11.6209 6.48797 11.3999 6.15726 11.1213 5.87868C10.8427 5.6001 10.512 5.37913 10.1481 5.22836C9.78407 5.0776 9.39397 5 9 5C8.60603 5 8.21593 5.0776 7.85195 5.22836C7.48797 5.37913 7.15726 5.6001 6.87868 5.87868C6.6001 6.15726 6.37913 6.48797 6.22836 6.85195C6.0776 7.21593 6 7.60603 6 8ZM9 12C7.93913 12 6.92172 11.5786 6.17157 10.8284C5.42143 10.0783 5 9.06087 5 8C5 6.93913 5.42143 5.92172 6.17157 5.17157C6.92172 4.42143 7.93913 4 9 4C10.0609 4 11.0783 4.42143 11.8284 5.17157C12.5786 5.92172 13 6.93913 13 8C13 9.06087 12.5786 10.0783 11.8284 10.8284C11.0783 11.5786 10.0609 12 9 12ZM7 17.5C7.13261 17.5 7.25979 17.4473 7.35355 17.3536C7.44732 17.2598 7.5 17.1326 7.5 17C7.5 16.8674 7.44732 16.7402 7.35355 16.6464C7.25979 16.5527 7.13261 16.5 7 16.5C6.86739 16.5 6.74021 16.5527 6.64645 16.6464C6.55268 16.7402 6.5 16.8674 6.5 17C6.5 17.1326 6.55268 17.2598 6.64645 17.3536C6.74021 17.4473 6.86739 17.5 7 17.5ZM7.5 14.5V15.5844C8.08125 15.7906 8.5 16.3469 8.5 17C8.5 17.8281 7.82812 18.5 7 18.5C6.17188 18.5 5.5 17.8281 5.5 17C5.5 16.3469 5.91875 15.7906 6.5 15.5844V14.6187C4.50625 15.0844 3.01875 16.8687 3 19H15C14.9844 17.05 13.7375 15.3938 12 14.7656V15.5719C12.7219 15.7875 13.25 16.4563 13.25 17.25V18C13.25 18.275 13.025 18.5 12.75 18.5H12.25C11.975 18.5 11.75 18.275 11.75 18C11.75 17.725 11.975 17.5 12.25 17.5V17.25C12.25 16.8344 11.9156 16.5 11.5 16.5C11.0844 16.5 10.75 16.8344 10.75 17.25V17.5C11.025 17.5 11.25 17.725 11.25 18C11.25 18.275 11.025 18.5 10.75 18.5H10.25C9.975 18.5 9.75 18.275 9.75 18V17.25C9.75 16.4563 10.2781 15.7875 11 15.5719V14.5312C10.825 14.5094 10.6437 14.5 10.4625 14.5H7.5375H7.5ZM2 19.0375C2 15.9781 4.47812 13.5 7.5375 13.5H10.4625C13.5219 13.5 16 15.9781 16 19.0375C16 19.5688 15.5688 20 15.0375 20H2.9625C2.43125 20 2 19.5688 2 19.0375ZM19 10H20.5C20.775 10 21 9.775 21 9.5V5.5C21 5.225 20.775 5 20.5 5H15.5C15.225 5 15 5.225 15 5.5V9.5C15 9.775 15.225 10 15.5 10H16C16.5531 10 17 10.4469 17 11V11.25L18.4 10.2C18.5719 10.0687 18.7844 10 19 10ZM16.9656 12.525L16.6656 12.75L16.4 12.95C16.325 13.0062 16.2219 13.0156 16.1375 12.975C16.0531 12.9344 16 12.8469 16 12.75V12.4156V12.0406V12V11H15.5C14.6719 11 14 10.3281 14 9.5V5.5C14 4.67188 14.6719 4 15.5 4H20.5C21.3281 4 22 4.67188 22 5.5V9.5C22 10.3281 21.3281 11 20.5 11H19L17 12.5L16.9656 12.525Z" fill="#172154"/>
</svg>
