<svg width="24" height="24" viewBox="0 0 24 24" fill="none" xmlns="http://www.w3.org/2000/svg">
<path d="M9 22H15C20 22 22 20 22 15V9C22 4 20 2 15 2H9C4 2 2 4 2 9V15C2 20 4 22 9 22Z" stroke="white" stroke-width="1.5" stroke-linecap="round" stroke-linejoin="round"/>
<path d="M18.7708 6.15254C19.047 5.91737 19.0771 5.50172 18.8419 5.22827C18.6067 4.95482 18.1911 4.922 17.9176 5.15717L13.7557 8.72574L10.6821 6.03496C10.4578 5.8408 10.1324 5.81893 9.88632 5.983L5.2923 9.04568C4.9915 9.24803 4.90947 9.65548 5.10909 9.95628C5.30871 10.2571 5.71889 10.3391 6.01969 10.1395L10.1953 7.35574L13.3182 10.0875C13.5643 10.3036 13.9307 10.3036 14.1768 10.093L18.7708 6.15528V6.15254ZM10.4688 15.9367C10.4688 16.057 10.3703 16.1555 10.25 16.1555C10.1297 16.1555 10.0312 16.057 10.0312 15.9367V11.5614C10.0312 11.4411 10.1297 11.3427 10.25 11.3427C10.3703 11.3427 10.4688 11.4411 10.4688 11.5614V15.9367ZM10.25 10.2489C9.52536 10.2489 8.93744 10.8368 8.93744 11.5614V15.9367C8.93744 16.6614 9.52536 17.2493 10.25 17.2493C10.9747 17.2493 11.5626 16.6614 11.5626 15.9367V11.5614C11.5626 10.8368 10.9747 10.2489 10.25 10.2489ZM6.96857 15.9367C6.96857 16.057 6.87013 16.1555 6.74981 16.1555C6.62949 16.1555 6.53105 16.057 6.53105 15.9367V14.1866C6.53105 14.0663 6.62949 13.9678 6.74981 13.9678C6.87013 13.9678 6.96857 14.0663 6.96857 14.1866V15.9367ZM6.74981 12.874C6.02516 12.874 5.43723 13.462 5.43723 14.1866V15.9367C5.43723 16.6614 6.02516 17.2493 6.74981 17.2493C7.47446 17.2493 8.06238 16.6614 8.06238 15.9367V14.1866C8.06238 13.462 7.47446 12.874 6.74981 12.874ZM13.969 13.3116V15.9367C13.969 16.057 13.8705 16.1555 13.7502 16.1555C13.6299 16.1555 13.5315 16.057 13.5315 15.9367V13.3116C13.5315 13.1912 13.6299 13.0928 13.7502 13.0928C13.8705 13.0928 13.969 13.1912 13.969 13.3116ZM12.4376 13.3116V15.9367C12.4376 16.6614 13.0256 17.2493 13.7502 17.2493C14.4749 17.2493 15.0628 16.6614 15.0628 15.9367V13.3116C15.0628 12.5869 14.4749 11.999 13.7502 11.999C13.0256 11.999 12.4376 12.5869 12.4376 13.3116ZM17.4692 15.9367C17.4692 16.057 17.3707 16.1555 17.2504 16.1555C17.1301 16.1555 17.0317 16.057 17.0317 15.9367V11.5614C17.0317 11.4411 17.1301 11.3427 17.2504 11.3427C17.3707 11.3427 17.4692 11.4411 17.4692 11.5614V15.9367ZM17.2504 10.2489C16.5258 10.2489 15.9378 10.8368 15.9378 11.5614V15.9367C15.9378 16.6614 16.5258 17.2493 17.2504 17.2493C17.9751 17.2493 18.563 16.6614 18.563 15.9367V11.5614C18.563 10.8368 17.9751 10.2489 17.2504 10.2489Z" fill="white"/>
</svg>
