<svg width="24" height="24" viewBox="0 0 24 24" fill="none" xmlns="http://www.w3.org/2000/svg">
<g clip-path="url(#clip0_4_71)">
<path d="M20.7053 5.48184C21.0604 5.17948 21.0991 4.64507 20.7967 4.29349C20.4944 3.94191 19.96 3.89972 19.6084 4.20208L14.2573 8.79023L10.3055 5.33066C10.0172 5.08103 9.59883 5.05291 9.28241 5.26386L3.37582 9.20159C2.98908 9.46176 2.8836 9.98562 3.14026 10.3724C3.39691 10.7591 3.92429 10.8646 4.31103 10.6079L9.6797 7.0288L13.6948 10.5411C14.0112 10.8189 14.4823 10.8189 14.7987 10.5481L20.7053 5.48536V5.48184ZM10.0313 18.0615C10.0313 18.2162 9.90471 18.3427 9.75002 18.3427C9.59532 18.3427 9.46875 18.2162 9.46875 18.0615V12.4361C9.46875 12.2815 9.59532 12.1549 9.75002 12.1549C9.90471 12.1549 10.0313 12.2815 10.0313 12.4361V18.0615ZM9.75002 10.7486C8.81832 10.7486 8.06242 11.5045 8.06242 12.4361V18.0615C8.06242 18.9932 8.81832 19.7491 9.75002 19.7491C10.6817 19.7491 11.4376 18.9932 11.4376 18.0615V12.4361C11.4376 11.5045 10.6817 10.7486 9.75002 10.7486ZM5.53102 18.0615C5.53102 18.2162 5.40445 18.3427 5.24975 18.3427C5.09506 18.3427 4.96849 18.2162 4.96849 18.0615V15.8113C4.96849 15.6566 5.09506 15.5301 5.24975 15.5301C5.40445 15.5301 5.53102 15.6566 5.53102 15.8113V18.0615ZM5.24975 14.1237C4.31806 14.1237 3.56216 14.8797 3.56216 15.8113V18.0615C3.56216 18.9932 4.31806 19.7491 5.24975 19.7491C6.18145 19.7491 6.93735 18.9932 6.93735 18.0615V15.8113C6.93735 14.8797 6.18145 14.1237 5.24975 14.1237ZM14.5315 14.6863V18.0615C14.5315 18.2162 14.405 18.3427 14.2503 18.3427C14.0956 18.3427 13.969 18.2162 13.969 18.0615V14.6863C13.969 14.5316 14.0956 14.405 14.2503 14.405C14.405 14.405 14.5315 14.5316 14.5315 14.6863ZM12.5627 14.6863V18.0615C12.5627 18.9932 13.3186 19.7491 14.2503 19.7491C15.182 19.7491 15.9379 18.9932 15.9379 18.0615V14.6863C15.9379 13.7546 15.182 12.9987 14.2503 12.9987C13.3186 12.9987 12.5627 13.7546 12.5627 14.6863ZM19.0318 18.0615C19.0318 18.2162 18.9052 18.3427 18.7505 18.3427C18.5958 18.3427 18.4693 18.2162 18.4693 18.0615V12.4361C18.4693 12.2815 18.5958 12.1549 18.7505 12.1549C18.9052 12.1549 19.0318 12.2815 19.0318 12.4361V18.0615ZM18.7505 10.7486C17.8188 10.7486 17.0629 11.5045 17.0629 12.4361V18.0615C17.0629 18.9932 17.8188 19.7491 18.7505 19.7491C19.6822 19.7491 20.4381 18.9932 20.4381 18.0615V12.4361C20.4381 11.5045 19.6822 10.7486 18.7505 10.7486Z" fill="#172154"/>
<path d="M0.75 4C0.75 2.20508 2.20507 0.75 4 0.75H20C21.7949 0.75 23.25 2.20507 23.25 4V20C23.25 21.7949 21.7949 23.25 20 23.25H4C2.20508 23.25 0.75 21.7949 0.75 20V4Z" stroke="#172154" stroke-width="1.5"/>
</g>
<defs>
<clipPath id="clip0_4_71">
<rect width="24" height="24" fill="white"/>
</clipPath>
</defs>
</svg>
