<svg width="43" height="50" viewBox="0 0 43 50" fill="none" xmlns="http://www.w3.org/2000/svg">
<path d="M21.1914 49.5166C30.2344 49.5166 38.1348 44.624 42.3828 37.3389C38.1641 30.0146 30.2539 25.083 21.1914 25.083C12.1289 25.083 4.21875 30.0049 0 37.3389C4.24805 44.624 12.1484 49.5166 21.1914 49.5166Z" fill="#1566FE"/>
<path d="M21.1914 25.0732C18.4766 25.0732 15.8789 25.5127 13.4375 26.333C14.043 30.0732 17.2852 32.9346 21.1914 32.9346C25.0977 32.9346 28.3398 30.0732 28.9453 26.333C26.5039 25.5127 23.8965 25.0732 21.1914 25.0732Z" fill="#EBDEE5"/>
<path d="M13.4375 26.3332C13.9453 29.4972 16.3477 32.0265 19.4434 32.7394C20.5762 32.3097 21.3867 31.216 21.3867 29.9367V25.3566C21.3867 25.2687 21.377 25.1711 21.3672 25.0832H21.1914C18.4863 25.0734 15.8691 25.5129 13.4375 26.3332Z" fill="white"/>
<path d="M3.85742 32.29C2.36328 33.7939 1.06445 35.4834 0 37.3389C1.06445 39.165 2.36328 40.8447 3.85742 42.3389V32.29Z" fill="#1566FE"/>
<path d="M33.4961 28.374V41.6553C33.4961 43.2861 32.1289 44.624 30.498 44.624H6.47461C10.5762 47.6514 15.6738 49.5264 21.1914 49.5264C30.2344 49.5264 38.1543 44.624 42.4121 37.3389C40.2637 33.6279 37.1094 30.5225 33.4961 28.374Z" fill="#172154"/>
<path d="M21.1914 29.0186C19.6582 29.0186 18.418 27.7783 18.418 26.2451V22.3486H23.9746V26.2451C23.9648 27.7783 22.7246 29.0186 21.1914 29.0186Z" fill="#F29F18"/>
<path d="M8.49609 28.6572V32.8076H9.375V28.1006C9.08203 28.2764 8.78906 28.4619 8.49609 28.6572Z" fill="#595959"/>
<path d="M12.8711 40.8936H10.8301V39.9365H12.3926V36.7822C12.3926 34.8779 10.8398 33.3252 8.93555 33.3252C7.03125 33.3252 5.46875 34.8779 5.46875 36.7822V39.9365H7.03125V40.8936H4.99023C4.72656 40.8936 4.51172 40.6787 4.51172 40.415V36.7822C4.51172 34.3506 6.49414 32.3682 8.92578 32.3682C11.3574 32.3682 13.3398 34.3506 13.3398 36.7822V40.415C13.3496 40.6787 13.1348 40.8936 12.8711 40.8936Z" fill="white"/>
<path d="M27.8906 15.1416H30.2832C31.6016 15.1416 32.6758 14.0674 32.6758 12.749C32.6758 11.4307 31.6016 10.3564 30.2832 10.3564H27.8906V15.1416ZM14.4824 15.1416H12.0898C10.7715 15.1416 9.69727 14.0674 9.69727 12.749C9.69727 11.4307 10.7715 10.3564 12.0898 10.3564H14.4824V15.1416Z" fill="#F29F18"/>
<path d="M21.1914 23.3154C16.8555 23.3154 13.3398 19.7998 13.3398 15.4639V10.0049C13.3398 5.66895 16.8555 2.15332 21.1914 2.15332C25.5273 2.15332 29.043 5.66895 29.043 10.0049V15.4639C29.043 19.7998 25.5273 23.3154 21.1914 23.3154Z" fill="#F4BC62"/>
<path d="M21.1719 2.14355H21.1816C20.7715 2.14355 20.3809 2.18262 19.9902 2.24121C23.7598 2.81738 26.6602 6.0791 26.6602 10.0049V15.4639C26.6602 19.3994 23.7695 22.6611 20 23.2373C20.3906 23.2959 20.791 23.335 21.1914 23.335H21.1719C25.5078 23.335 29.0039 19.7998 29.0039 15.4639V10.0049C29.0039 5.66895 25.5078 2.14355 21.1719 2.14355Z" fill="#F29F18"/>
<path d="M29.8145 12.2705H30.7715V13.2275H29.8145V12.2705ZM11.6113 12.2705H12.5684V13.2275H11.6113V12.2705Z" fill="#734B0B"/>
<path d="M15.0586 1.62598V8.55957C15.0586 9.55566 14.248 10.3662 13.252 10.3662H12.041V4.63379C12.0508 2.97363 13.3984 1.62598 15.0586 1.62598ZM27.2852 1.62598V8.55957C27.2852 9.55566 28.0957 10.3662 29.0918 10.3662H30.3027V4.63379C30.293 2.97363 28.9453 1.62598 27.2852 1.62598Z" fill="#595959"/>
<path d="M15.8594 0.473633H26.4844C28.584 0.473633 30.293 2.18262 30.293 4.28223V8.66699H12.0508V4.28223C12.0508 2.18262 13.7598 0.473633 15.8594 0.473633Z" fill="#172154"/>
<path d="M16.7969 11.2256H19.2383V12.2021H16.7969V11.2256ZM18.75 13.1787H19.7266V15.0342H18.75V13.1787ZM23.1445 11.2256H25.5859V12.2021H23.1445V11.2256ZM22.6562 13.1787H23.6328V15.0342H22.6562V13.1787Z" fill="#595959"/>
<path d="M17.9004 17.4658L17.1289 18.0322L14.4922 14.4287L11.5527 10.415C11.7285 10.376 11.9141 10.3467 12.0996 10.3467H12.6953L14.4922 12.8076L17.9004 17.4658ZM30.8398 10.415L27.9004 14.4287L25.2637 18.0322L24.4922 17.4658L27.9004 12.8076L29.6973 10.3467H30.293C30.4785 10.3467 30.6641 10.376 30.8398 10.415Z" fill="#EBDEE5"/>
<path d="M13.4473 16.7529C14.0625 20.4736 17.2949 23.3154 21.1914 23.3154C25.0879 23.3154 28.3203 20.4736 28.9355 16.7529H13.4473Z" fill="#1566FE"/>
<path d="M32.9688 28.1006V38.0225H33.9258V28.6572C33.6133 28.4619 33.291 28.2764 32.9688 28.1006Z" fill="#595959"/>
<path d="M33.4473 42.3291C34.8496 42.3291 35.9863 41.1923 35.9863 39.79C35.9863 38.3878 34.8496 37.251 33.4473 37.251C32.045 37.251 30.9082 38.3878 30.9082 39.79C30.9082 41.1923 32.045 42.3291 33.4473 42.3291Z" fill="white"/>
<path d="M6.5625 39.1455H7.51953V41.6846H6.5625V39.1455ZM10.3418 39.1455H11.2988V41.6846H10.3418V39.1455ZM34.2383 37.3779C34.3164 37.6221 34.3652 37.8857 34.3652 38.1689C34.3652 39.5752 33.2324 40.708 31.8262 40.708C31.5527 40.708 31.2891 40.6592 31.0352 40.5811C31.3672 41.5967 32.3242 42.3389 33.4473 42.3389C34.8535 42.3389 35.9863 41.2061 35.9863 39.7998C35.9863 38.667 35.2539 37.71 34.2383 37.3779Z" fill="#EBDEE5"/>
<path d="M32.9688 39.3115H33.9258V40.2686H32.9688V39.3115Z" fill="#C6BEC3"/>
<path d="M15.791 0.473633H23.3105C25.3711 0.473633 27.0508 2.14355 27.0508 4.21387C27.0508 5.86426 25.7129 7.21191 24.0527 7.21191H12.0508V4.21387C12.0508 2.14355 13.7207 0.473633 15.791 0.473633Z" fill="#1566FE"/>
<path d="M20.6641 3.62793H15.8398C15.2051 3.62793 14.6973 3.12012 14.6973 2.48535C14.6973 1.85059 15.2051 1.34277 15.8398 1.34277H20.6641C21.2988 1.34277 21.8066 1.85059 21.8066 2.48535C21.7969 3.12012 21.2891 3.62793 20.6641 3.62793Z" fill="#3D8BCA"/>
<path d="M21.1914 16.7529L21.709 17.2705C21.875 17.4365 21.875 17.71 21.709 17.876L21.3379 18.2471C21.2598 18.3252 21.1426 18.374 21.0352 18.374H18.457C18.2227 18.374 18.0273 18.5693 18.0273 18.8037V18.9014C18.0273 19.1357 18.2227 19.3311 18.457 19.3311H23.916C24.1504 19.3311 24.3457 19.5264 24.3457 19.7607C24.3457 19.9951 24.1504 20.1904 23.916 20.1904H18.4473C18.2129 20.1904 18.0176 20.3857 18.0176 20.6201V20.7178C18.0176 20.9521 18.2129 21.1475 18.4473 21.1475H21.9629C22.0801 21.1475 22.1875 21.1963 22.2656 21.2744L22.3047 21.3135C22.4707 21.4795 22.4707 21.7529 22.3047 21.9189L21.3184 22.9443C21.2402 23.0225 21.1914 23.1299 21.1914 23.2471V23.3154C25.0879 23.3154 28.3203 20.4736 28.9355 16.7529H21.1914Z" fill="#172154"/>
<path d="M20.7031 3.21777H21.6797V5.85449H20.7031V3.21777Z" fill="#F22E24"/>
<path d="M19.8242 4.09668H22.4609V5.07324H19.8242V4.09668Z" fill="#F22E24"/>
</svg>
