<svg width="24" height="24" viewBox="0 0 24 24" fill="none" xmlns="http://www.w3.org/2000/svg">
<path d="M12 2.42857C12.5628 2.42857 13.1201 2.53942 13.6401 2.7548C14.16 2.97018 14.6325 3.28586 15.0305 3.68383C15.4284 4.08179 15.7441 4.55425 15.9595 5.07421C16.1749 5.59418 16.2857 6.15148 16.2857 6.71429C16.2857 7.27709 16.1749 7.83439 15.9595 8.35436C15.7441 8.87432 15.4284 9.34678 15.0305 9.74474C14.6325 10.1427 14.16 10.4584 13.6401 10.6738C13.1201 10.8891 12.5628 11 12 11C11.4372 11 10.8799 10.8891 10.3599 10.6738C9.83996 10.4584 9.36751 10.1427 8.96954 9.74474C8.57158 9.34678 8.25589 8.87432 8.04052 8.35436C7.82514 7.83439 7.71429 7.27709 7.71429 6.71429C7.71429 6.15148 7.82514 5.59418 8.04052 5.07421C8.25589 4.55425 8.57158 4.08179 8.96954 3.68383C9.36751 3.28586 9.83996 2.97018 10.3599 2.7548C10.8799 2.53942 11.4372 2.42857 12 2.42857ZM6.28571 6.71429C6.28571 8.22981 6.88775 9.68326 7.95939 10.7549C9.03103 11.8265 10.4845 12.4286 12 12.4286C13.5155 12.4286 14.969 11.8265 16.0406 10.7549C17.1122 9.68326 17.7143 8.22981 17.7143 6.71429C17.7143 5.19876 17.1122 3.74531 16.0406 2.67368C14.969 1.60204 13.5155 1 12 1C10.4845 1 9.03103 1.60204 7.95939 2.67368C6.88775 3.74531 6.28571 5.19876 6.28571 6.71429ZM8.42857 19.5714C8.42857 19.382 8.50383 19.2003 8.63778 19.0664C8.77174 18.9324 8.95342 18.8571 9.14286 18.8571C9.3323 18.8571 9.51398 18.9324 9.64793 19.0664C9.78189 19.2003 9.85714 19.382 9.85714 19.5714C9.85714 19.7609 9.78189 19.9426 9.64793 20.0765C9.51398 20.2105 9.3323 20.2857 9.14286 20.2857C8.95342 20.2857 8.77174 20.2105 8.63778 20.0765C8.50383 19.9426 8.42857 19.7609 8.42857 19.5714ZM9.85714 17.5491V16H9.91071H14.0893C14.3482 16 14.6027 16.0134 14.8571 16.0446V17.5312C13.8259 17.8393 13.0714 18.7946 13.0714 19.9286V21C13.0714 21.3929 13.3929 21.7143 13.7857 21.7143H14.5C14.8929 21.7143 15.2143 21.3929 15.2143 21C15.2143 20.6071 14.8929 20.2857 14.5 20.2857V19.9286C14.5 19.3348 14.9777 18.8571 15.5714 18.8571C16.1652 18.8571 16.6429 19.3348 16.6429 19.9286V20.2857C16.25 20.2857 15.9286 20.6071 15.9286 21C15.9286 21.3929 16.25 21.7143 16.6429 21.7143H17.3571C17.75 21.7143 18.0714 21.3929 18.0714 21V19.9286C18.0714 18.7946 17.317 17.8393 16.2857 17.5312V16.3795C18.7679 17.2723 20.5491 19.6384 20.5714 22.4286H3.42857C3.45089 19.3839 5.58036 16.8348 8.42857 16.1696V17.5491C7.59821 17.8438 7 18.6384 7 19.5714C7 20.7545 7.95982 21.7143 9.14286 21.7143C10.3259 21.7143 11.2857 20.7545 11.2857 19.5714C11.2857 18.6384 10.6875 17.8438 9.85714 17.5491ZM9.91071 14.5714C5.54018 14.5714 2 18.1116 2 22.4821C2 23.2411 2.61607 23.8571 3.375 23.8571H20.625C21.3839 23.8571 22 23.2411 22 22.4821C22 18.1116 18.4598 14.5714 14.0893 14.5714H9.91071Z" fill="#172154"/>
</svg>
