<svg width="24" height="24" viewBox="0 0 24 24" fill="none" xmlns="http://www.w3.org/2000/svg">
<path d="M4.22222 3C2.99653 3 2 3.99653 2 5.22222V18.5556C2 19.7813 2.99653 20.7778 4.22222 20.7778H10.8889C11 20.7778 11.1111 20.7708 11.2188 20.7535C11.0278 20.434 10.9097 20.0625 10.8924 19.6667H10.8889H4.22222C3.60764 19.6667 3.11111 19.1701 3.11111 18.5556V17.4444H7C7.30556 17.4444 7.55556 17.1944 7.55556 16.8889C7.55556 16.5833 7.30556 16.3333 7 16.3333H3.11111V14.1111H7C7.30556 14.1111 7.55556 13.8611 7.55556 13.5556C7.55556 13.25 7.30556 13 7 13H3.11111V5.22222C3.11111 4.60764 3.60764 4.11111 4.22222 4.11111H10.8889C11.5035 4.11111 12 4.60764 12 5.22222V14.6667V16.6597C12.3194 16.3056 12.6944 16.0035 13.1111 15.7708V14.6667V12.4375V5.22222C13.1111 3.99653 12.1146 3 10.8889 3H4.22222ZM7 5.77778C6.53819 5.77778 6.16667 6.14931 6.16667 6.61111V7.16667H5.61111C5.14931 7.16667 4.77778 7.53819 4.77778 8V9.11111C4.77778 9.57292 5.14931 9.94444 5.61111 9.94444H6.16667V10.5C6.16667 10.9618 6.53819 11.3333 7 11.3333H8.11111C8.57292 11.3333 8.94444 10.9618 8.94444 10.5V9.94444H9.5C9.96181 9.94444 10.3333 9.57292 10.3333 9.11111V8C10.3333 7.53819 9.96181 7.16667 9.5 7.16667H8.94444V6.61111C8.94444 6.14931 8.57292 5.77778 8.11111 5.77778H7ZM7.27778 7.72222V6.88889H7.83333V7.72222C7.83333 8.02778 8.08333 8.27778 8.38889 8.27778H9.22222V8.83333H8.38889C8.08333 8.83333 7.83333 9.08333 7.83333 9.38889V10.2222H7.27778V9.38889C7.27778 9.08333 7.02778 8.83333 6.72222 8.83333H5.88889V8.27778H6.72222C7.02778 8.27778 7.27778 8.02778 7.27778 7.72222ZM15.3333 12.4444C15.3333 12.0024 15.5089 11.5785 15.8215 11.2659C16.134 10.9534 16.558 10.7778 17 10.7778C17.442 10.7778 17.866 10.9534 18.1785 11.2659C18.4911 11.5785 18.6667 12.0024 18.6667 12.4444C18.6667 12.8865 18.4911 13.3104 18.1785 13.623C17.866 13.9355 17.442 14.1111 17 14.1111C16.558 14.1111 16.134 13.9355 15.8215 13.623C15.5089 13.3104 15.3333 12.8865 15.3333 12.4444ZM19.7778 12.4444C19.7778 11.7077 19.4851 11.0012 18.9642 10.4803C18.4433 9.95932 17.7367 9.66667 17 9.66667C16.2633 9.66667 15.5568 9.95932 15.0358 10.4803C14.5149 11.0012 14.2222 11.7077 14.2222 12.4444C14.2222 13.1812 14.5149 13.8877 15.0358 14.4086C15.5568 14.9296 16.2633 15.2222 17 15.2222C17.7367 15.2222 18.4433 14.9296 18.9642 14.4086C19.4851 13.8877 19.7778 13.1812 19.7778 12.4444ZM13.1111 19.566C13.1111 18.3958 14.0625 17.4444 15.2326 17.4444H18.7674C19.9375 17.4444 20.8889 18.3958 20.8889 19.566C20.8889 19.6215 20.8438 19.6667 20.7882 19.6667H13.2118C13.1562 19.6667 13.1111 19.6215 13.1111 19.566ZM15.2326 16.3333C13.4479 16.3333 12 17.7813 12 19.566C12 20.2361 12.5417 20.7778 13.2118 20.7778H20.7882C21.4583 20.7778 22 20.2361 22 19.566C22 17.7813 20.5521 16.3333 18.7674 16.3333H17H15.2326Z" fill="#172154"/>
</svg>
