<svg width="24" height="24" viewBox="0 0 24 24" fill="none" xmlns="http://www.w3.org/2000/svg">
<path d="M1.49971 11.9977C1.49971 6.20035 6.20035 1.49971 11.9977 1.49971C17.795 1.49971 22.4956 6.20035 22.4956 11.9977V18.751C22.4956 19.993 21.488 21.0006 20.246 21.0006L16.3702 20.9959C16.0609 20.1242 15.2267 19.4962 14.2472 19.4962H11.2478C10.0059 19.4962 8.99824 20.5038 8.99824 21.7458C8.99824 22.9877 10.0059 23.9953 11.2478 23.9953H14.2472C15.2267 23.9953 16.0609 23.3673 16.3702 22.4956L20.246 22.5003C22.3175 22.5003 24 20.8225 24 18.751V11.9977C23.9953 5.37083 18.6245 0 11.9977 0C5.37083 0 0 5.37083 0 11.9977V14.2472C0 14.6596 0.337434 14.9971 0.749854 14.9971C1.16227 14.9971 1.49971 14.6596 1.49971 14.2472V11.9977ZM14.9971 21.7458C14.9971 22.1582 14.6596 22.4956 14.2472 22.4956H11.2478C10.8354 22.4956 10.4979 22.1582 10.4979 21.7458C10.4979 21.3333 10.8354 20.9959 11.2478 20.9959H14.2472C14.6596 20.9959 14.9971 21.3333 14.9971 21.7458ZM6.74868 10.4979H7.49854V16.4968H6.74868C5.50674 16.4968 4.49912 15.4892 4.49912 14.2472V12.7475C4.49912 11.5056 5.50674 10.4979 6.74868 10.4979ZM2.99941 12.7475V14.2472C2.99941 16.3187 4.67721 17.9965 6.74868 17.9965H7.49854C8.32806 17.9965 8.99824 17.3263 8.99824 16.4968V10.4979C8.99824 9.66842 8.32806 8.99824 7.49854 8.99824H6.74868C4.67721 8.99824 2.99941 10.676 2.99941 12.7475ZM16.4968 10.4979H17.2466C18.4886 10.4979 19.4962 11.5056 19.4962 12.7475V14.2472C19.4962 15.4892 18.4886 16.4968 17.2466 16.4968H16.4968V10.4979ZM17.2466 8.99824H16.4968C15.6673 8.99824 14.9971 9.66842 14.9971 10.4979V16.4968C14.9971 17.3263 15.6673 17.9965 16.4968 17.9965H17.2466C19.3181 17.9965 20.9959 16.3187 20.9959 14.2472V12.7475C20.9959 10.676 19.3181 8.99824 17.2466 8.99824Z" fill="#91B396"/>
</svg>
