<svg width="24" height="24" viewBox="0 0 24 24" fill="none" xmlns="http://www.w3.org/2000/svg">
<path d="M3.24976 11.998C3.24976 7.16696 7.16696 3.24976 11.998 3.24976C16.8291 3.24976 20.7463 7.16696 20.7463 11.998V17.6259C20.7463 18.6608 19.9067 19.5005 18.8717 19.5005L15.6419 19.4966C15.3841 18.7702 14.6889 18.2468 13.8727 18.2468H11.3732C10.3382 18.2468 9.49854 19.0865 9.49854 20.1215C9.49854 21.1564 10.3382 21.9961 11.3732 21.9961H13.8727C14.6889 21.9961 15.3841 21.4728 15.6419 20.7463L18.8717 20.7502C20.5979 20.7502 22 19.3521 22 17.6259V11.998C21.9961 6.47569 17.5204 2 11.998 2C6.47569 2 2 6.47569 2 11.998V13.8727C2 14.2164 2.2812 14.4976 2.62488 14.4976C2.96856 14.4976 3.24976 14.2164 3.24976 13.8727V11.998ZM14.4976 20.1215C14.4976 20.4651 14.2164 20.7463 13.8727 20.7463H11.3732C11.0295 20.7463 10.7483 20.4651 10.7483 20.1215C10.7483 19.7778 11.0295 19.4966 11.3732 19.4966H13.8727C14.2164 19.4966 14.4976 19.7778 14.4976 20.1215ZM7.6239 10.7483H8.24878V15.7473H7.6239C6.58895 15.7473 5.74927 14.9076 5.74927 13.8727V12.6229C5.74927 11.588 6.58895 10.7483 7.6239 10.7483ZM4.49951 12.6229V13.8727C4.49951 15.5989 5.89768 16.9971 7.6239 16.9971H8.24878C8.94005 16.9971 9.49854 16.4386 9.49854 15.7473V10.7483C9.49854 10.057 8.94005 9.49854 8.24878 9.49854H7.6239C5.89768 9.49854 4.49951 10.8967 4.49951 12.6229ZM15.7473 10.7483H16.3722C17.4071 10.7483 18.2468 11.588 18.2468 12.6229V13.8727C18.2468 14.9076 17.4071 15.7473 16.3722 15.7473H15.7473V10.7483ZM16.3722 9.49854H15.7473C15.056 9.49854 14.4976 10.057 14.4976 10.7483V15.7473C14.4976 16.4386 15.056 16.9971 15.7473 16.9971H16.3722C18.0984 16.9971 19.4966 15.5989 19.4966 13.8727V12.6229C19.4966 10.8967 18.0984 9.49854 16.3722 9.49854Z" fill="#172154"/>
</svg>
